<svg id="Layer_1" data-name="Layer 1" xmlns="http://www.w3.org/2000/svg" width="2.16in" height="0.69in" viewBox="0 0 155.66 50">
  <defs>
    <style>
      .cls-1, .cls-3 {
        fill: #2cb1bc;
      }

      .cls-2 {
        fill: #fff;
      }

      .cls-3 {
        isolation: isolate;
        font-size: 25.78px;
        font-family: Geometric706BT-BlackB, Geometr706 Md BT;
        font-weight: 800;
        letter-spacing: 0.06em;
      }
    </style>
  </defs>
  <rect class="cls-1" width="50" height="50" rx="10"/>
  <path class="cls-2" d="M26,9.56h5.86V29.25a9.27,9.27,0,0,1-1.21,4.8,8.11,8.11,0,0,1-3.38,3.21,10.59,10.59,0,0,1-4.94,1.13,10.1,10.1,0,0,1-7-2.28,8.36,8.36,0,0,1-2.52-6.51h5.9a4.56,4.56,0,0,0,.88,3.09,3.51,3.51,0,0,0,2.77,1A3.37,3.37,0,0,0,25,32.53a4.9,4.9,0,0,0,1-3.28Z"/>
  <text class="cls-3" transform="translate(62.08 33.76) scale(1.02 1)">Jobbit</text>
</svg>
